<?xml version="1.0" standalone="no"?>
<!DOCTYPE svg PUBLIC "-//W3C//DTD SVG 20010904//EN"
 "http://www.w3.org/TR/2001/REC-SVG-20010904/DTD/svg10.dtd">
<svg version="1.0" xmlns="http://www.w3.org/2000/svg"
 width="2400.000000pt" height="2400.000000pt" viewBox="0 0 2400.000000 2400.000000"
 preserveAspectRatio="xMidYMid meet">

<g transform="translate(0.000000,2400.000000) scale(0.100000,-0.100000)"
fill="#000000" stroke="none">
<path d="M11852 21329 c-512 -37 -1070 -270 -1597 -668 -1251 -945 -2243
-2660 -2499 -4321 -45 -291 -59 -467 -60 -745 0 -208 3 -278 17 -352 32 -166
89 -338 187 -563 265 -604 389 -978 431 -1295 16 -127 6 -369 -20 -465 -22
-83 -99 -246 -129 -273 -10 -9 -83 -35 -163 -57 -868 -245 -1625 -542 -1990
-781 -397 -260 -806 -791 -1252 -1624 -369 -690 -785 -1687 -1098 -2635 -202
-613 -343 -1131 -405 -1488 -55 -314 -10 -556 175 -937 215 -446 633 -1021
1149 -1585 219 -238 291 -313 564 -582 l291 -288 358 0 359 0 0 4034 c0 3530
2 4039 15 4075 32 92 100 157 194 185 50 15 275 16 2435 16 l2381 0 -85 54
c-218 139 -453 311 -655 481 -361 303 -726 687 -980 1029 -576 777 -838 1493
-896 2449 -19 308 12 632 81 867 182 610 616 940 1360 1032 135 17 740 17 945
0 83 -7 188 -15 235 -18 47 -3 130 -9 185 -14 55 -5 217 -14 361 -21 259 -13
564 -5 883 21 58 5 142 11 186 14 44 3 148 11 230 18 240 20 811 17 975 -5
724 -97 1144 -425 1322 -1032 69 -237 98 -549 79 -863 -34 -562 -134 -1014
-320 -1450 -194 -452 -449 -859 -809 -1291 -252 -302 -575 -616 -902 -877
-179 -143 -511 -379 -545 -386 -5 -2 1066 -5 2380 -8 l2390 -5 46 -23 c60 -30
112 -82 141 -141 l23 -46 3 -4047 2 -4048 359 0 360 0 309 308 c170 169 367
370 438 447 611 662 1023 1221 1255 1700 185 381 230 623 175 937 -122 704
-547 2007 -1001 3063 -477 1110 -954 1921 -1405 2389 -229 237 -434 373 -835
552 -361 161 -966 371 -1505 524 -162 46 -168 50 -222 155 -42 82 -74 179 -89
269 -18 118 -6 372 25 523 53 250 169 594 317 937 269 621 294 717 293 1111 0
138 -6 309 -13 380 -125 1341 -717 2722 -1642 3831 -151 182 -521 554 -684
690 -558 464 -1078 728 -1611 819 -74 12 -366 38 -384 33 -3 0 -56 -5 -118 -9z"/>
<path d="M10195 16469 c-765 -48 -1104 -351 -1176 -1048 -24 -238 2 -660 61
-991 117 -646 425 -1262 944 -1885 134 -160 475 -501 661 -660 494 -421 1125
-805 1323 -805 164 0 669 290 1111 638 680 535 1226 1201 1529 1862 173 380
259 691 319 1165 26 202 25 646 0 800 -92 542 -357 806 -901 895 -299 49 -581
48 -1301 -5 -709 -53 -871 -52 -1655 10 -228 18 -602 35 -707 34 -43 -1 -136
-6 -208 -10z m186 -864 c172 -43 294 -100 499 -233 263 -170 460 -362 460
-447 0 -29 -71 -40 -260 -39 -403 2 -848 95 -1075 225 -150 85 -253 220 -262
343 -6 73 11 117 55 140 113 58 377 63 583 11z m3750 15 c106 -29 134 -66 126
-166 -11 -147 -143 -295 -341 -384 -242 -109 -637 -182 -996 -184 -192 -1
-260 10 -260 40 0 55 121 197 265 309 250 195 508 329 736 381 139 32 360 33
470 4z"/>
<path d="M6750 7260 l0 -3140 5250 0 5250 0 0 3140 0 3140 -5250 0 -5250 0 0
-3140z"/>
<path d="M6750 3100 l0 -440 5250 0 5250 0 0 440 0 440 -5250 0 -5250 0 0
-440z"/>
</g>
</svg>
